<svg id="Layer_1" viewBox="0 0 512 512" xmlns="http://www.w3.org/2000/svg" data-name="Layer 1"><path d="m256.462-.456c141.377 0 256 114.586 256 255.963s-114.622 256.034-256 256.034-255.999-114.658-255.999-256.034 114.616-255.963 255.999-255.963zm0 205.392a50.624 50.624 0 0 1 50.6 50.606 5 5 0 0 0 10.006 0 60.636 60.636 0 0 0 -60.61-60.6 5 5 0 0 0 0 10zm5 134.093a83.3 83.3 0 0 0 52.092-22.374l44.935 44.219a25.045 25.045 0 1 0 7-7.107l-45.063-44.344a83.609 83.609 0 0 0 -1.389-109.382l47.812-47.817a31.271 31.271 0 1 0 -7.072-7.069l-47.812 47.818a83.636 83.636 0 0 0 -110.411-.519l-33.086-32.554a24.985 24.985 0 1 0 -6.985 7.1l32.953 32.432a83.623 83.623 0 0 0 -.544 111.606l-47.812 47.823a31.381 31.381 0 1 0 7.057 7.069l47.826-47.819a83.263 83.263 0 0 0 50.5 20.918v23.906a26.535 26.535 0 1 0 9.991 0z" fill="#9c27b0" fill-rule="evenodd"/></svg>