<svg id="Layer_1" height="512" viewBox="0 0 512 512" width="512" xmlns="http://www.w3.org/2000/svg" xmlns:xlink="http://www.w3.org/1999/xlink" data-name="Layer 1"><linearGradient id="GradientFill_1" gradientUnits="userSpaceOnUse" x1="74.93" x2="438.482" y1="436.897" y2="73.692"><stop offset="0" stop-color="#617fc0"/><stop offset="1" stop-color="#20c4f4"/></linearGradient><path d="m256 0c141.385 0 256 114.615 256 256s-114.615 256-256 256-256-114.615-256-256 114.615-256 256-256zm0 200.485a55.488 55.488 0 0 0 -41.746 92.073 42.62 42.62 0 0 1 26.327-31.731 23.415 23.415 0 1 1 30.838 0 42.6 42.6 0 0 1 26.322 31.731 55.484 55.484 0 0 0 -41.741-92.073zm0 126.17a70.655 70.655 0 1 0 -70.655-70.655 70.733 70.733 0 0 0 70.655 70.655zm0-165.364a94.709 94.709 0 1 0 94.709 94.709 94.821 94.821 0 0 0 -94.709-94.709zm-124.682 182.577a36.859 36.859 0 1 0 30.825 16.717l21.837-21.7a109.634 109.634 0 0 0 144.122-.077l21.764 21.765a36.863 36.863 0 1 0 10.705-10.7l-21.765-21.773a109.638 109.638 0 0 0 .094-144.1l21.689-21.859a36.871 36.871 0 1 0 -10.714-10.71l-21.675 21.854a109.631 109.631 0 0 0 -144.3-.091l-21.765-21.765a36.86 36.86 0 1 0 -10.7 10.7l21.759 21.771a109.613 109.613 0 0 0 .077 144.283l-21.833 21.689a36.614 36.614 0 0 0 -20.12-6.004z" fill="url(#GradientFill_1)" fill-rule="evenodd"/></svg>