<svg id="Layer_1" viewBox="0 0 512 512" xmlns="http://www.w3.org/2000/svg" xmlns:xlink="http://www.w3.org/1999/xlink" data-name="Layer 1"><linearGradient id="GradientFill_1" gradientUnits="userSpaceOnUse" x1="6.683" x2="506.192" y1="261.716" y2="249.37"><stop offset="0" stop-color="#58c8dd"/><stop offset="1" stop-color="#53a7dd"/></linearGradient><path d="m256.462-.456c141.377 0 256 114.586 256 255.963s-114.622 256.034-256 256.034-255.999-114.658-255.999-256.034 114.616-255.963 255.999-255.963zm126.632 147.747a18.375 18.375 0 1 0 -18.386-18.374 18.4 18.4 0 0 0 18.386 18.374zm-5.613 213.109a12.188 12.188 0 1 0 12.185 12.188 12.194 12.194 0 0 0 -12.185-12.188zm-107.322 26.449a13.7 13.7 0 1 0 -13.69 13.693 13.707 13.707 0 0 0 13.69-13.693zm-140.328 13.693a18.375 18.375 0 1 0 -18.372-18.375 18.4 18.4 0 0 0 18.372 18.375zm19.431-240.332a12.187 12.187 0 1 0 -12.186-12.187 12.193 12.193 0 0 0 12.186 12.187zm233.832-64.668a33.357 33.357 0 0 0 -28.294 51.058l-43.888 43.894a84.691 84.691 0 0 0 -108.3-.493l-29.469-28.994a27.232 27.232 0 1 0 -10.525 10.687l29.3 28.818a84.692 84.692 0 0 0 -.5 109.476l-43.9 43.894a33.4 33.4 0 1 0 10.61 10.606l43.888-43.894a84.553 84.553 0 0 0 46.953 19.481v19.088a28.689 28.689 0 1 0 14.992 0v-19.09a84.571 84.571 0 0 0 48.568-20.873l41.071 40.411a27.23 27.23 0 1 0 10.525-10.688l-41.254-40.594a84.7 84.7 0 0 0 -1.36-107.23l43.9-43.894a33.366 33.366 0 1 0 17.684-61.663zm-126.625 112.794a47.257 47.257 0 0 1 47.2 47.206 7.5 7.5 0 0 0 15.007 0 62.277 62.277 0 0 0 -62.2-62.206 7.5 7.5 0 1 0 0 15z" fill="url(#GradientFill_1)" fill-rule="evenodd"/></svg>